<?xml version="1.0" encoding="utf-8"?>
<!-- Generator: Adobe Illustrator 16.0.0, SVG Export Plug-In . SVG Version: 6.00 Build 0)  -->
<!DOCTYPE svg PUBLIC "-//W3C//DTD SVG 1.1//EN" "http://www.w3.org/Graphics/SVG/1.1/DTD/svg11.dtd">
<svg version="1.1" id="Ebene_1" xmlns="http://www.w3.org/2000/svg" xmlns:xlink="http://www.w3.org/1999/xlink" x="0px" y="0px"
	 width="129.667px" height="204.552px" viewBox="104.061 110.031 129.667 204.552"
	 enable-background="new 104.061 110.031 129.667 204.552" xml:space="preserve">
<g id="Ebene_2">
	<path fill="#70BD88" d="M168.954,110.04c18.738,1.832,36.747,5.369,49.706,20.951c8.638,10.389,13.483,22.34,14.729,35.737
		c2.467,26.535-8.938,48.649-22.693,69.899c-13.073,20.188-26.413,40.205-39.688,60.266c-0.403,0.609-1.356,0.855-2.053,1.271
		C168.954,235.456,168.954,172.749,168.954,110.04z"/>
	<path fill="#93CBA5" d="M168.954,110.04c0,62.709,0,125.416,0,188.125c-0.58,0-1.162,0-1.742,0
		c-10.912-19.002-24.574-36.181-36.292-54.644c-10.567-16.649-21.382-33.334-25.188-53.106c-7.07-36.752,8.059-71.444,50-78.81
		C160.16,110.829,164.465,109.93,168.954,110.04z"/>
	<path fill="#95C0D6" d="M167.212,298.165c0.58,0,1.162,0,1.742,0c0.58,1.162,1.162,2.322,1.742,3.484
		c-3.618,3.629-0.914,8.164-1.742,12.191c-2.831,0-5.661,0-8.439,0C161.856,308.053,168.278,304.749,167.212,298.165z"/>
	<path fill="#70AAC7" d="M168.954,313.842c0.801-4.033-1.82-8.555,1.742-12.191c2.271,3.961,4.548,7.924,6.998,12.191
		C174.575,313.842,171.767,313.842,168.954,313.842z"/>
	<path fill="#70BD88" d="M111.319,171.417c0.787-13.957,5.518-26.174,15.744-36.104c3.093-3.002,6.035-4.179,9.559-0.976
		c3.167,2.881,5.127,6.107,2.109,10.234c-6.022,8.229-11.758,16.555-11.584,27.396c0.162,10.096,2.74,19.683,8.838,27.59
		c4.619,5.99,3.242,10.445-1.86,13.804c-5.153,3.392-9.397-0.774-11.661-4.729C115.918,197.2,110.992,185.086,111.319,171.417z"/>
	<polygon fill="#70BD88" points="168.381,297.618 173.028,306.102 177.676,314.583 168.381,314.583 159.083,314.583 
		163.729,306.102 	"/>
	<polygon fill="#93CBA5" points="171.035,302.84 174.194,308.711 177.356,314.583 171.035,314.583 164.707,314.583 167.871,308.711 
			"/>
</g>
</svg>
