<?xml version="1.0" encoding="utf-8"?>
<!-- Generator: Adobe Illustrator 16.0.0, SVG Export Plug-In . SVG Version: 6.00 Build 0)  -->
<!DOCTYPE svg PUBLIC "-//W3C//DTD SVG 1.1//EN" "http://www.w3.org/Graphics/SVG/1.1/DTD/svg11.dtd">
<svg version="1.1" id="Ebene_1" xmlns="http://www.w3.org/2000/svg" xmlns:xlink="http://www.w3.org/1999/xlink" x="0px" y="0px"
	 width="129.664px" height="204.551px" viewBox="0 0 129.664 204.551" enable-background="new 0 0 129.664 204.551"
	 xml:space="preserve">
<g id="Ebene_1_1_">
	<path fill="#91BED4" d="M64.892,0.009c18.739,1.831,36.748,5.369,49.705,20.951c8.639,10.389,13.483,22.342,14.729,35.737
		c2.465,26.534-8.937,48.649-22.691,69.899c-13.074,20.188-26.414,40.205-39.688,60.264c-0.404,0.611-1.357,0.857-2.055,1.271
		C64.892,125.424,64.892,62.717,64.892,0.009z"/>
	<path fill="#6DA8C6" d="M64.892,0.009c0,62.708,0,125.416,0,188.125c-0.581,0-1.161,0-1.742,0
		c-10.914-19.002-24.575-36.181-36.292-54.644C16.292,116.84,5.475,100.155,1.67,80.383c-7.071-36.752,8.059-71.444,50-78.81
		C56.098,0.797,60.405-0.101,64.892,0.009z"/>
	<path fill="#95C0D6" d="M63.15,188.133c0.581,0,1.161,0,1.742,0c0.582,1.162,1.162,2.321,1.742,3.483
		c-3.618,3.63-0.912,8.164-1.742,12.192c-2.831,0-5.661,0-8.438,0C57.793,198.022,64.215,194.717,63.15,188.133z"/>
	<path fill="#70AAC7" d="M64.892,203.811c0.802-4.033-1.819-8.555,1.742-12.193c2.272,3.963,4.549,7.926,6.999,12.193
		C70.513,203.811,67.704,203.811,64.892,203.811z"/>
	<path fill="#91BED4" d="M7.256,61.385C8.045,47.428,12.775,35.211,23,25.281c3.094-3.003,6.037-4.178,9.559-0.978
		c3.169,2.881,5.129,6.108,2.109,10.234c-6.021,8.229-11.758,16.557-11.584,27.396c0.162,10.097,2.74,19.684,8.838,27.59
		c4.619,5.99,3.244,10.445-1.858,13.805c-5.153,3.393-9.399-0.775-11.662-4.729C11.856,87.168,6.93,75.055,7.256,61.385z"/>
	<polygon fill="#95C0D6" points="64.319,187.586 68.968,196.071 73.614,204.551 64.319,204.551 55.021,204.551 59.668,196.071 	"/>
	<polygon fill="#70AAC7" points="66.972,192.809 70.131,198.68 73.293,204.551 66.972,204.551 60.645,204.551 63.809,198.68 	"/>
</g>
</svg>
