<?xml version="1.0" encoding="utf-8"?>
<!-- Generator: Adobe Illustrator 16.0.0, SVG Export Plug-In . SVG Version: 6.00 Build 0)  -->
<!DOCTYPE svg PUBLIC "-//W3C//DTD SVG 1.1//EN" "http://www.w3.org/Graphics/SVG/1.1/DTD/svg11.dtd">
<svg version="1.1" id="Ebene_1" xmlns="http://www.w3.org/2000/svg" xmlns:xlink="http://www.w3.org/1999/xlink" x="0px" y="0px"
	 width="129.665px" height="204.553px" viewBox="4.674 0 129.665 204.553" enable-background="new 4.674 0 129.665 204.553"
	 xml:space="preserve">
<g id="scd">
	<path fill="#FCD669" d="M69.567,0.01c18.737,1.832,36.746,5.368,49.705,20.951c8.637,10.39,13.483,22.342,14.729,35.736
		c2.467,26.535-8.938,48.65-22.691,69.9c-13.074,20.188-26.414,40.205-39.688,60.264c-0.403,0.61-1.357,0.857-2.054,1.272
		C69.567,125.426,69.567,62.719,69.567,0.01z"/>
	<path fill="#F9C938" d="M69.567,0.01c0,62.709,0,125.417,0,188.125c-0.58,0-1.162,0-1.742,0
		c-10.912-19.005-24.575-36.182-36.293-54.646C20.966,116.84,10.151,100.155,6.345,80.383c-7.07-36.75,8.059-71.443,50-78.81
		C60.772,0.799,65.077-0.1,69.567,0.01z"/>
	<path fill="#95C0D6" d="M67.823,188.135c0.58,0,1.162,0,1.742,0c0.58,1.16,1.162,2.32,1.741,3.481
		c-3.618,3.631-0.913,8.165-1.741,12.193c-2.83,0-5.66,0-8.438,0C62.468,198.023,68.892,194.718,67.823,188.135z"/>
	<path fill="#70AAC7" d="M69.567,203.811c0.801-4.033-1.82-8.557,1.74-12.193c2.272,3.962,4.549,7.924,6.998,12.193
		C75.187,203.811,72.378,203.811,69.567,203.811z"/>
	<path fill="#FCD669" d="M11.932,61.386c0.786-13.957,5.517-26.174,15.743-36.104c3.094-3.003,6.036-4.178,9.559-0.976
		c3.168,2.881,5.127,6.106,2.109,10.235c-6.021,8.227-11.758,16.555-11.584,27.396c0.162,10.096,2.741,19.684,8.839,27.59
		c4.618,5.991,3.242,10.445-1.86,13.806c-5.154,3.393-9.398-0.775-11.662-4.729C16.53,87.171,11.604,75.056,11.932,61.386z"/>
	<polygon fill="#FCD669" points="68.993,187.59 73.64,196.072 78.287,204.553 68.993,204.553 59.694,204.553 64.342,196.072 	"/>
	<polygon fill="#F9C938" points="71.647,192.81 74.807,198.681 77.968,204.553 71.647,204.553 65.317,204.553 68.483,198.681 	"/>
</g>
</svg>
