<?xml version="1.0" encoding="utf-8"?>
<!-- Generator: Adobe Illustrator 16.0.0, SVG Export Plug-In . SVG Version: 6.00 Build 0)  -->
<!DOCTYPE svg PUBLIC "-//W3C//DTD SVG 1.1//EN" "http://www.w3.org/Graphics/SVG/1.1/DTD/svg11.dtd">
<svg version="1.1" id="Ebene_1" xmlns="http://www.w3.org/2000/svg" xmlns:xlink="http://www.w3.org/1999/xlink" x="0px" y="0px"
	 width="122.732px" height="257.665px" viewBox="114.863 39.267 122.732 257.665"
	 enable-background="new 114.863 39.267 122.732 257.665" xml:space="preserve">
<g id="Ebene_5">
	<g>
		<path fill="#624642" d="M196.106,286.844c0,9.309-7.545,10.088-16.853,10.088l0,0c-9.308,0-16.853-0.779-16.853-10.088v-42.479
			c0-9.309,7.545-6.704,16.853-6.704l0,0c9.308,0,16.853-2.604,16.853,6.704V286.844z"/>
		<path fill="#4D956A" d="M168.6,238.98c-19.285-2.84-36.269-15.139-43.122-35.438c-9.011-26.654-3.534-50.564,6.432-75.933
			c11.593-29.499,24.675-58.492,39.456-86.639c0.379-0.732,1.424-1.14,2.162-1.704c0.629,0.835,1.259,1.669,1.879,2.501
			c20.087,30.214,41.343,60.267,53.984,94.07c12.659,33.88,14.669,77.444-23.452,96.835
			C193.886,238.793,180.783,240.781,168.6,238.98z"/>
		<path fill="#2E7F67" d="M156.828,238.934c-17.947-3.715-33.313-16.431-38.828-36.343c-7.247-26.151-1.039-48.925,9.438-72.866
			c12.191-27.851,25.756-55.138,40.869-81.518c0.395-0.688,1.387-1.027,2.108-1.533c0.551,0.839,1.102,1.673,1.648,2.508
			c17.471,30.142,36.048,60.181,46.376,93.411c10.349,33.298,10.271,75.394-26.33,92.148
			C180.543,240.034,168.169,241.279,156.828,238.934z"/>
		<path fill="#50393F" d="M186.461,286.844c0,9.309-7.544,10.088-16.852,10.088l0,0c-9.309,0-16.851-0.779-16.851-10.088v-42.479
			c0-9.309,7.542-6.704,16.851-6.704l0,0c9.308,0,16.852-2.604,16.852,6.704V286.844z"/>
	</g>
</g>
</svg>
