<?xml version="1.0" encoding="utf-8"?>
<!-- Generator: Adobe Illustrator 16.0.0, SVG Export Plug-In . SVG Version: 6.00 Build 0)  -->
<!DOCTYPE svg PUBLIC "-//W3C//DTD SVG 1.1//EN" "http://www.w3.org/Graphics/SVG/1.1/DTD/svg11.dtd">
<svg version="1.1" id="Ebene_1" xmlns="http://www.w3.org/2000/svg" xmlns:xlink="http://www.w3.org/1999/xlink" x="0px" y="0px"
	 width="677.031px" height="636.93px" viewBox="140.831 58.86 677.031 636.93"
	 enable-background="new 140.831 58.86 677.031 636.93" xml:space="preserve">
<g id="Ebene_6">
	<polygon fill="#5C151B" points="722.833,582.674 530.892,478.985 485.172,695.79 424.684,491.625 244.1,622.354 360.977,420.587 
		140.831,405.383 352.932,337.992 235.86,171.977 435.601,278.179 473.52,58.86 534.894,282.097 714.593,132.296 605.69,331.76 
		817.862,349.268 594.861,412.558 	"/>
	<polygon fill="#717070" stroke="#000000" stroke-miterlimit="10" points="657.908,529.907 537.318,436.112 536.459,594.759 
		486.492,450.409 401.52,578.141 449.528,435.553 304.63,486.4 425.501,386.355 282.802,354.579 434.742,343.729 344.371,233.029 
		464.313,312.886 465.819,168.178 512.367,316.332 600.76,184.795 548.408,336.875 697.648,276.536 581.676,369.57 719.476,408.356 
		567.814,417.209 	"/>
	<polygon fill="#D9D9D9" points="599.786,549.161 534.5,473 513,445.5 499.117,425.047 386.706,512.321 461.975,408.866 
		336.486,410.057 459.237,371.843 355.8,297.724 474.554,335.094 437.271,218.228 495.57,337.499 549.779,201.934 537.627,350.702 
		650.351,255.066 550.826,373.54 700.57,357.331 550.732,396.582 681.257,469.665 538.521,429.207 	"/>
	<path fill="#F9B03D" d="M783.506,430.051c7.604,10.462,10.081,21.755,5.139,34.051c-7.808,19.428-33.994,26.771-52.908,15.596
		c-11.748-6.94-16.131-18.141-16.258-30.004c-0.146-13.601,8.226-23.349,21.077-28.619c1.695-1.284,3.262-2.792,5.464-3.213
		c12.908-2.979,24.538-0.307,34.918,7.911C782.333,426.874,783.515,428.108,783.506,430.051z"/>
	<path fill="#F9B03D" d="M751.867,298.179c3.431,4.72,4.548,9.815,2.316,15.363c-3.521,8.765-15.338,12.078-23.871,7.036
		c-5.302-3.131-7.276-8.186-7.334-13.537c-0.066-6.136,3.711-10.534,9.51-12.912c0.765-0.58,1.471-1.26,2.465-1.45
		c5.823-1.343,11.071-0.138,15.754,3.569C751.338,296.746,751.871,297.302,751.867,298.179z"/>
	<path fill="#F9B03D" d="M415.542,608.128c7.604,10.462,10.08,21.755,5.14,34.051c-7.809,19.428-33.996,26.771-52.91,15.596
		c-11.748-6.94-16.129-18.141-16.256-30.006c-0.148-13.599,8.223-23.347,21.075-28.617c1.695-1.284,3.261-2.792,5.464-3.214
		c12.907-2.979,24.538-0.306,34.92,7.91C414.37,604.95,415.552,606.185,415.542,608.128z"/>
	<path fill="#F9B03D" d="M250.763,275.206c8.875,12.212,11.767,25.395,5.999,39.747c-9.114,22.676-39.683,31.248-61.761,18.203
		c-13.713-8.103-18.827-21.173-18.975-35.023c-0.173-15.874,9.599-27.252,24.602-33.406c1.979-1.499,3.805-3.259,6.378-3.75
		c15.066-3.476,28.643-0.356,40.76,9.234C249.394,271.497,250.775,272.938,250.763,275.206z"/>
	<path fill="#F9B03D" d="M583.685,122.073c6.491,8.93,8.604,18.571,4.389,29.066c-6.665,16.583-29.021,22.852-45.166,13.312
		c-10.028-5.924-13.77-15.483-13.876-25.612c-0.126-11.608,7.02-19.93,17.991-24.429c1.445-1.096,2.781-2.383,4.663-2.743
		c11.019-2.542,20.945-0.261,29.809,6.753C582.684,119.36,583.693,120.414,583.685,122.073z"/>
	<path fill="#F9B03D" d="M275.103,528.398c7.604,10.462,10.08,21.755,5.139,34.051c-7.808,19.426-33.996,26.77-52.91,15.594
		c-11.748-6.939-16.129-18.139-16.256-30.004c-0.148-13.599,8.224-23.347,21.076-28.619c1.695-1.284,3.26-2.792,5.464-3.213
		c12.907-2.979,24.538-0.305,34.919,7.911C273.93,525.22,275.113,526.455,275.103,528.398z"/>
	<path fill="#FCC723" stroke="#000000" stroke-width="11.8955" stroke-miterlimit="10" d="M312.537,261.583
		c4.872-0.76,14.011-2.816,27.415-6.168c11.573-2.742,20.864-4.491,27.873-5.255c2.741-0.15,5.405-0.229,7.995-0.229
		c20.104,0,30.08,7.161,29.929,21.476c0,20.259-12.491,40.516-37.468,60.771c15.686-1.063,24.748,3.354,27.188,13.251
		c0.457,2.137,0.686,4.341,0.686,6.625c0,11.423-5.483,23-16.449,34.728c-8.378,8.986-18.734,16.904-31.071,23.76
		c-14.775,8.225-31.756,12.337-50.947,12.337c-3.044,0-6.09-0.078-9.139-0.228c5.94-31.223,12.487-73.184,19.648-125.882
		C310.326,281.842,311.772,270.115,312.537,261.583z M336.753,356.623c-1.221,5.79-2.513,13.634-3.884,23.532
		c21.475-6.547,32.213-14.013,32.213-22.392c0-3.044-2.667-4.567-7.996-4.567C352.363,353.196,345.585,354.339,336.753,356.623z
		 M349.318,295.396c-1.221,5.026-2.362,10.053-3.426,15.079l-3.199,15.079c11.115-6.854,19.037-14.771,23.76-23.76
		c1.063-1.978,1.599-3.577,1.599-4.797c0-2.588-1.981-3.884-5.94-3.884C359.064,293.111,354.802,293.875,349.318,295.396z"/>
	<path fill="#FCC723" stroke="#000000" stroke-width="11.8955" stroke-miterlimit="10" d="M472.277,281.535
		c16.143,0,27.564,8.989,34.27,26.958c3.501,9.292,5.255,19.498,5.255,30.614c0,10.661-1.6,22.237-4.798,34.726
		c-5.637,21.326-15.385,40.974-29.243,58.943c-16.904,21.933-34.805,32.896-53.688,32.896c-16.3,0-27.873-8.982-34.728-26.958
		c-3.348-8.832-5.025-18.732-5.025-29.7c0-10.813,1.678-22.54,5.025-35.184c5.633-21.475,15.307-41.197,29.016-59.171
		C435.267,292.579,453.237,281.535,472.277,281.535z M464.053,338.193c-8.378,0-16.904,6.854-25.587,20.562
		c-7.008,10.816-11.88,21.401-14.622,31.756c-1.371,5.483-2.056,10.437-2.056,14.853c0,6.247,1.521,11.349,4.569,15.307
		c3.501,4.419,8.375,6.625,14.62,6.625c8.527,0,16.223-4.491,23.074-13.479c5.483-7.157,9.442-15.61,11.88-25.359
		c2.894-11.423,3.501-22.692,1.828-33.813C475.933,343.677,471.364,338.193,464.053,338.193z"/>
	<path fill="#FCC723" stroke="#000000" stroke-width="11.8955" stroke-miterlimit="10" d="M577.967,290.751
		c16.145,0,27.565,8.989,34.271,26.958c3.501,9.292,5.254,19.498,5.254,30.614c0,10.663-1.601,22.239-4.798,34.726
		c-5.639,21.326-15.387,40.976-29.243,58.943c-16.906,21.933-34.805,32.896-53.689,32.896c-16.299,0-27.872-8.982-34.726-26.958
		c-3.351-8.832-5.026-18.732-5.026-29.698c0-10.813,1.68-22.54,5.026-35.186c5.633-21.475,15.307-41.197,29.015-59.171
		C540.956,301.796,558.926,290.751,577.967,290.751z M569.742,347.41c-8.378,0-16.906,6.854-25.588,20.562
		c-7.008,10.816-11.88,21.401-14.621,31.757c-1.371,5.482-2.059,10.436-2.059,14.852c0,6.247,1.521,11.349,4.569,15.307
		c3.501,4.419,8.375,6.625,14.622,6.625c8.528,0,16.221-4.489,23.075-13.479c5.481-7.157,9.439-15.61,11.88-25.359
		c2.892-11.423,3.501-22.69,1.828-33.813C581.622,352.894,577.053,347.41,569.742,347.41z"/>
	<path fill="#FCC723" stroke="#000000" stroke-width="11.8955" stroke-miterlimit="10" d="M575.336,497.284
		c24.191-50.506,43.583-102.271,58.182-155.287l55.097-5.029l-13.765,83.058l26.806-75.728l53.013-5.397
		c-9.739,49.09-16.016,93.533-18.835,133.338c-0.559,7.9-1.114,15.724-1.663,23.472l-47.071,4.911l15.274-99.235l-37.679,108.413
		l-25.314,1.645l24.985-139.315l-41.176,122.136L575.336,497.284z"/>
</g>
</svg>
