<?xml version="1.0" encoding="utf-8"?>
<!-- Generator: Adobe Illustrator 16.0.0, SVG Export Plug-In . SVG Version: 6.00 Build 0)  -->
<!DOCTYPE svg PUBLIC "-//W3C//DTD SVG 1.1//EN" "http://www.w3.org/Graphics/SVG/1.1/DTD/svg11.dtd">
<svg version="1.1" id="Ebene_1" xmlns="http://www.w3.org/2000/svg" xmlns:xlink="http://www.w3.org/1999/xlink" x="0px" y="0px"
	 width="273.369px" height="113.759px" viewBox="60.601 57.958 273.369 113.759"
	 enable-background="new 60.601 57.958 273.369 113.759" xml:space="preserve">
<g id="Ebene_4">
	<path fill="#DADADA" d="M100.01,100.164c7.411-1.646,14.757,1.682,22.445,1.886c5.643,0.151,9.099-2.266,11.493-6.019
		c11.207-17.568,27.892-24.942,47.779-25.408c8.771-0.208,17.996,0.861,26.25,3.632c4.764,1.599,7.516,0.532,10.432-1.639
		c27.815-20.727,69.827-18.131,94.786-0.615c16.455,11.548,22.923,26.215,20.154,46.126c-1.195,8.584-1.608,16.762-6.736,24.334
		c-6.202,9.163-15.211,13.249-25.213,14.787c-9.229,1.419-18.664,1.23-28.176,0.926c-13.576-0.441-27.675,1.061-41.078,5.311
		c-22.188,7.043-45.079,9.47-68.158,7.651c-10.512-0.827-20.659-5.073-28.78-12.325c-3.25-2.906-5.552-3.828-9.451-1.381
		c-11.799,7.401-24.714,9.008-38.382,7.086c-9.951-1.396-23.153-13.242-26.032-24.13c-2.871-10.858,2.925-27.487,11.592-33.421
		C81.018,101.432,89.936,99.188,100.01,100.164z"/>
</g>
</svg>
