<?xml version="1.0" encoding="utf-8"?>
<!-- Generator: Adobe Illustrator 16.0.0, SVG Export Plug-In . SVG Version: 6.00 Build 0)  -->
<!DOCTYPE svg PUBLIC "-//W3C//DTD SVG 1.1//EN" "http://www.w3.org/Graphics/SVG/1.1/DTD/svg11.dtd">
<svg version="1.1" id="Ebene_1" xmlns="http://www.w3.org/2000/svg" xmlns:xlink="http://www.w3.org/1999/xlink" x="0px" y="0px"
	 width="274.916px" height="104.751px" viewBox="108.249 91.265 274.916 104.751"
	 enable-background="new 108.249 91.265 274.916 104.751" xml:space="preserve">
<g id="Ebene_4">
	<path fill="#B2B2B2" d="M339.888,114.625c-7.552-0.773-14.464,3.379-22.076,4.477c-5.586,0.801-9.299-1.197-12.111-4.646
		c-13.166-16.154-30.594-21.549-50.4-19.709c-8.734,0.811-17.773,2.94-25.65,6.647c-4.545,2.14-7.402,1.397-10.551-0.42
		c-30.027-17.366-71.457-9.925-94.221,10.36c-15.009,13.379-19.733,28.694-14.679,48.149c2.18,8.388,3.539,16.464,9.508,23.392
		c7.223,8.383,16.643,11.397,26.756,11.768c9.332,0.342,18.683-0.938,28.095-2.344c13.433-2.01,27.61-2.148,41.416,0.52
		c22.854,4.428,45.871,4.188,68.584-0.289c10.346-2.037,19.935-7.432,27.158-15.574c2.895-3.264,5.072-4.445,9.229-2.469
		c12.576,5.988,25.591,6.09,38.947,2.598c9.721-2.541,21.463-15.832,23.063-26.979c1.592-11.119-6.09-26.966-15.387-31.854
		C358.897,113.688,349.778,112.491,339.888,114.625z"/>
</g>
</svg>
