<?xml version="1.0" encoding="utf-8"?>
<!-- Generator: Adobe Illustrator 16.0.0, SVG Export Plug-In . SVG Version: 6.00 Build 0)  -->
<!DOCTYPE svg PUBLIC "-//W3C//DTD SVG 1.1//EN" "http://www.w3.org/Graphics/SVG/1.1/DTD/svg11.dtd">
<svg version="1.1" id="Ebene_1" xmlns="http://www.w3.org/2000/svg" xmlns:xlink="http://www.w3.org/1999/xlink" x="0px" y="0px"
	 width="178.428px" height="74.248px" viewBox="112.394 53.461 178.428 74.248"
	 enable-background="new 112.394 53.461 178.428 74.248" xml:space="preserve">
<g id="Ebene_4">
	<path fill="#C6C6C6" d="M138.114,81.008c4.838-1.072,9.634,1.098,14.649,1.232c3.687,0.098,5.94-1.48,7.502-3.93
		c7.314-11.467,18.207-16.279,31.188-16.584c5.726-0.137,11.744,0.563,17.133,2.37c3.107,1.044,4.906,0.347,6.81-1.07
		c18.153-13.524,45.577-11.833,61.866-0.399c10.742,7.537,14.963,17.111,13.156,30.105c-0.781,5.604-1.051,10.939-4.397,15.885
		c-4.048,5.979-9.929,8.646-16.456,9.649c-6.023,0.926-12.184,0.803-18.393,0.604c-8.858-0.289-18.063,0.69-26.813,3.467
		c-14.48,4.596-29.423,6.178-44.484,4.992c-6.861-0.539-13.484-3.313-18.784-8.045c-2.123-1.896-3.625-2.498-6.17-0.902
		c-7.7,4.832-16.13,5.882-25.052,4.627c-6.494-0.912-15.11-8.645-16.99-15.75c-1.875-7.088,1.908-17.941,7.564-21.813
		C125.719,81.836,131.539,80.372,138.114,81.008z"/>
</g>
</svg>
