<?xml version="1.0" encoding="utf-8"?>
<!-- Generator: Adobe Illustrator 16.0.0, SVG Export Plug-In . SVG Version: 6.00 Build 0)  -->
<!DOCTYPE svg PUBLIC "-//W3C//DTD SVG 1.1//EN" "http://www.w3.org/Graphics/SVG/1.1/DTD/svg11.dtd">
<svg version="1.1" id="Ebene_1" xmlns="http://www.w3.org/2000/svg" xmlns:xlink="http://www.w3.org/1999/xlink" x="0px" y="0px"
	 width="129.666px" height="204.552px" viewBox="104.061 110.031 129.666 204.552"
	 enable-background="new 104.061 110.031 129.666 204.552" xml:space="preserve">
<g id="Ebene_1_1_">
</g>
<g id="Ebene_2">
	<path fill="#70BD88" d="M168.954,110.04c18.739,1.832,36.747,5.368,49.706,20.951c8.638,10.389,13.484,22.34,14.729,35.737
		c2.467,26.535-8.937,48.65-22.693,69.9c-13.073,20.188-26.413,40.204-39.688,60.265c-0.403,0.609-1.357,0.856-2.053,1.271
		C168.954,235.456,168.954,172.748,168.954,110.04z"/>
	<path fill="#93CBA5" d="M168.954,110.04c0,62.708,0,125.416,0,188.125c-0.58,0-1.162,0-1.742,0
		c-10.912-19.003-24.575-36.181-36.292-54.644c-10.567-16.65-21.382-33.334-25.188-53.107c-7.071-36.751,8.058-71.444,50-78.809
		C160.16,110.828,164.465,109.93,168.954,110.04z"/>
	<path fill="#95C0D6" d="M167.212,298.165c0.58,0,1.162,0,1.742,0c0.58,1.161,1.162,2.321,1.742,3.483
		c-3.618,3.63-0.914,8.165-1.742,12.192c-2.831,0-5.661,0-8.439,0C161.856,308.053,168.279,304.748,167.212,298.165z"/>
	<path fill="#70AAC7" d="M168.954,313.842c0.801-4.033-1.82-8.555,1.742-12.192c2.272,3.962,4.548,7.924,6.998,12.192
		C174.575,313.842,171.766,313.842,168.954,313.842z"/>
	<path fill="#70BD88" d="M111.32,171.416c0.786-13.956,5.517-26.174,15.744-36.104c3.092-3.002,6.035-4.178,9.558-0.975
		c3.167,2.881,5.127,6.107,2.109,10.234c-6.022,8.229-11.758,16.555-11.584,27.396c0.162,10.096,2.741,19.683,8.839,27.59
		c4.619,5.991,3.242,10.446-1.861,13.804c-5.154,3.392-9.398-0.775-11.661-4.729C115.918,197.199,110.992,185.086,111.32,171.416z"
		/>
	<polygon fill="#70BD88" points="168.381,297.618 173.028,306.102 177.676,314.583 168.381,314.583 159.083,314.583 163.73,306.102 
			"/>
	<polygon fill="#93CBA5" points="171.035,302.841 174.195,308.711 177.356,314.583 171.035,314.583 164.707,314.583 
		167.871,308.711 	"/>
</g>
<g id="scd">
</g>
<g id="Ebene_4">
</g>
<g id="Ebene_5">
</g>
<g id="Ebene_6">
</g>
<g id="Ebene_7">
</g>
</svg>
