<?xml version="1.0" encoding="utf-8"?>
<!-- Generator: Adobe Illustrator 16.0.0, SVG Export Plug-In . SVG Version: 6.00 Build 0)  -->
<!DOCTYPE svg PUBLIC "-//W3C//DTD SVG 1.1//EN" "http://www.w3.org/Graphics/SVG/1.1/DTD/svg11.dtd">
<svg version="1.1" id="Ebene_1" xmlns="http://www.w3.org/2000/svg" xmlns:xlink="http://www.w3.org/1999/xlink" x="0px" y="0px"
	 width="129.664px" height="204.554px" viewBox="98.169 141.723 129.664 204.554"
	 enable-background="new 98.169 141.723 129.664 204.554" xml:space="preserve">
<g id="Ebene_1_1_">
</g>
<g id="Ebene_2">
</g>
<g id="scd">
	<path fill="#FCD669" d="M163.062,141.732c18.738,1.832,36.747,5.368,49.706,20.951c8.637,10.39,13.483,22.342,14.728,35.737
		c2.467,26.535-8.937,48.65-22.692,69.9c-13.074,20.188-26.414,40.205-39.688,60.264c-0.403,0.61-1.357,0.857-2.053,1.272
		C163.062,267.148,163.062,204.441,163.062,141.732z"/>
	<path fill="#F9C938" d="M163.062,141.732c0,62.709,0,125.417,0,188.125c-0.58,0-1.162,0-1.742,0
		c-10.912-19.004-24.575-36.181-36.292-54.645c-10.567-16.65-21.382-33.334-25.188-53.107c-7.071-36.75,8.058-71.443,50-78.809
		C154.267,142.521,158.572,141.623,163.062,141.732z"/>
	<path fill="#95C0D6" d="M161.319,329.857c0.58,0,1.162,0,1.742,0c0.58,1.161,1.162,2.321,1.741,3.482
		c-3.618,3.631-0.913,8.165-1.741,12.193c-2.831,0-5.661,0-8.439,0C155.963,339.746,162.386,336.44,161.319,329.857z"/>
	<path fill="#70AAC7" d="M163.062,345.534c0.801-4.033-1.82-8.556,1.741-12.193c2.272,3.962,4.549,7.924,6.998,12.193
		C168.682,345.534,165.873,345.534,163.062,345.534z"/>
	<path fill="#FCD669" d="M105.427,203.109c0.786-13.957,5.517-26.174,15.743-36.104c3.093-3.003,6.036-4.178,9.559-0.976
		c3.167,2.881,5.127,6.107,2.109,10.235c-6.022,8.227-11.758,16.555-11.584,27.396c0.162,10.096,2.741,19.684,8.839,27.59
		c4.618,5.991,3.242,10.445-1.861,13.805c-5.154,3.393-9.398-0.775-11.661-4.729C110.025,228.893,105.099,216.779,105.427,203.109z"
		/>
	<polygon fill="#FCD669" points="162.488,329.313 167.135,337.795 171.782,346.276 162.488,346.276 153.189,346.276 
		157.837,337.795 	"/>
	<polygon fill="#F9C938" points="165.143,334.533 168.302,340.404 171.463,346.276 165.143,346.276 158.813,346.276 
		161.978,340.404 	"/>
</g>
<g id="Ebene_4">
</g>
<g id="Ebene_5">
</g>
<g id="Ebene_6">
</g>
<g id="Ebene_7">
</g>
</svg>
