<?xml version="1.0" encoding="utf-8"?>
<!-- Generator: Adobe Illustrator 16.0.0, SVG Export Plug-In . SVG Version: 6.00 Build 0)  -->
<!DOCTYPE svg PUBLIC "-//W3C//DTD SVG 1.1//EN" "http://www.w3.org/Graphics/SVG/1.1/DTD/svg11.dtd">
<svg version="1.1" id="Ebene_1" xmlns="http://www.w3.org/2000/svg" xmlns:xlink="http://www.w3.org/1999/xlink" x="0px" y="0px"
	 width="129.663px" height="204.552px" viewBox="141.168 97.992 129.663 204.552"
	 enable-background="new 141.168 97.992 129.663 204.552" xml:space="preserve">
<g id="Ebene_1_1_">
	<path fill="#91BED4" d="M206.061,98.001c18.739,1.831,36.748,5.368,49.705,20.951c8.639,10.389,13.484,22.341,14.729,35.737
		c2.466,26.534-8.936,48.65-22.691,69.899c-13.074,20.189-26.414,40.205-39.688,60.264c-0.404,0.611-1.357,0.857-2.054,1.272
		C206.061,223.417,206.061,160.709,206.061,98.001z"/>
	<path fill="#6DA8C6" d="M206.061,98.001c0,62.708,0,125.416,0,188.124c-0.581,0-1.161,0-1.742,0
		c-10.914-19.002-24.575-36.18-36.292-54.643c-10.567-16.65-21.383-33.335-25.188-53.107c-7.071-36.752,8.059-71.444,50-78.809
		C197.267,98.789,201.573,97.891,206.061,98.001z"/>
	<path fill="#95C0D6" d="M204.319,286.125c0.581,0,1.161,0,1.742,0c0.582,1.162,1.162,2.322,1.742,3.484
		c-3.618,3.63-0.912,8.164-1.742,12.192c-2.831,0-5.661,0-8.438,0C198.962,296.014,205.385,292.709,204.319,286.125z"/>
	<path fill="#70AAC7" d="M206.061,301.803c0.802-4.033-1.82-8.555,1.742-12.193c2.273,3.963,4.549,7.925,6.999,12.193
		C211.682,301.803,208.872,301.803,206.061,301.803z"/>
	<path fill="#91BED4" d="M148.426,159.377c0.788-13.956,5.518-26.174,15.744-36.104c3.093-3.003,6.036-4.178,9.558-0.977
		c3.169,2.881,5.129,6.108,2.109,10.234c-6.021,8.229-11.757,16.556-11.583,27.397c0.162,10.096,2.74,19.683,8.838,27.589
		c4.619,5.991,3.243,10.446-1.859,13.805c-5.154,3.392-9.399-0.775-11.662-4.729C153.025,185.16,148.099,173.047,148.426,159.377z"
		/>
	<polygon fill="#95C0D6" points="205.488,285.579 210.137,294.063 214.783,302.544 205.488,302.544 196.19,302.544 200.838,294.063 
			"/>
	<polygon fill="#70AAC7" points="208.141,290.802 211.301,296.672 214.462,302.544 208.141,302.544 201.814,302.544 
		204.978,296.672 	"/>
</g>
<g id="Ebene_2">
</g>
<g id="scd">
</g>
<g id="Ebene_4">
</g>
<g id="Ebene_5">
</g>
<g id="Ebene_6">
</g>
<g id="Ebene_7">
</g>
</svg>
