<?xml version="1.0" encoding="utf-8"?>
<!-- Generator: Adobe Illustrator 15.1.0, SVG Export Plug-In . SVG Version: 6.00 Build 0)  -->
<!DOCTYPE svg PUBLIC "-//W3C//DTD SVG 1.1//EN" "http://www.w3.org/Graphics/SVG/1.1/DTD/svg11.dtd">
<svg version="1.1" id="Ebene_1" xmlns="http://www.w3.org/2000/svg" xmlns:xlink="http://www.w3.org/1999/xlink" x="0px" y="0px"
	 width="28.646px" height="45.193px" viewBox="0 0 28.646 45.193" enable-background="new 0 0 28.646 45.193" xml:space="preserve">
<g id="Ebene_1_1_">
</g>
<g id="Ebene_2">
</g>
<g id="scd">
</g>
<g id="Ebene_4">
	<path fill="#D39B90" d="M14.338,0.002c4.141,0.405,8.118,1.186,10.981,4.629c1.907,2.296,2.979,4.937,3.254,7.896
		c0.545,5.862-1.975,10.749-5.015,15.444c-2.889,4.461-5.836,8.883-8.769,13.314c-0.089,0.135-0.3,0.188-0.453,0.28
		C14.338,27.712,14.338,13.857,14.338,0.002z"/>
	<path fill="#C5796B" d="M14.338,0.002c0,13.854,0,27.71,0,41.563c-0.129,0-0.258,0-0.385,0c-2.412-4.197-5.43-7.993-8.02-12.072
		C3.6,25.814,1.21,22.129,0.369,17.76C-1.194,9.64,2.15,1.975,11.416,0.348C12.394,0.176,13.345-0.022,14.338,0.002z"/>
	<path fill="#95C0D6" d="M13.953,41.566c0.127,0,0.256,0,0.385,0c0.127,0.258,0.256,0.515,0.385,0.771
		c-0.8,0.803-0.201,1.805-0.385,2.693c-0.626,0-1.252,0-1.865,0C12.769,43.752,14.189,43.021,13.953,41.566z"/>
	<path fill="#70AAC7" d="M14.338,45.031c0.176-0.893-0.402-1.891,0.385-2.694c0.502,0.876,1.004,1.751,1.546,2.694
		C15.579,45.031,14.959,45.031,14.338,45.031z"/>
	<path fill="#D39B90" d="M1.605,13.562c0.173-3.083,1.219-5.782,3.478-7.977c0.684-0.664,1.333-0.923,2.112-0.216
		C7.894,6.006,8.327,6.718,7.66,7.63C6.329,9.448,5.063,11.288,5.1,13.683c0.036,2.23,0.605,4.35,1.953,6.097
		c1.021,1.322,0.716,2.308-0.411,3.05c-1.139,0.75-2.076-0.172-2.576-1.045C2.619,19.26,1.531,16.583,1.605,13.562z"/>
	<polygon fill="#D39B90" points="14.211,41.446 15.239,43.321 16.263,45.194 14.211,45.194 12.156,45.194 13.183,43.321 	"/>
	<polygon fill="#C5796B" points="14.797,42.6 15.496,43.896 16.194,45.194 14.797,45.194 13.399,45.194 14.097,43.896 	"/>
</g>
<g id="Ebene_5">
</g>
<g id="Ebene_6">
</g>
<g id="Ebene_7">
</g>
</svg>
