<?xml version="1.0" encoding="utf-8"?>
<!-- Generator: Adobe Illustrator 16.0.0, SVG Export Plug-In . SVG Version: 6.00 Build 0)  -->
<!DOCTYPE svg PUBLIC "-//W3C//DTD SVG 1.1//EN" "http://www.w3.org/Graphics/SVG/1.1/DTD/svg11.dtd">
<svg version="1.1" xmlns="http://www.w3.org/2000/svg" xmlns:xlink="http://www.w3.org/1999/xlink" x="0px" y="0px"
	 width="87,5px" height="100.000px" viewBox="0 0 393.77 449.018" enable-background="new 0 0 393.77 449.018"
	 xml:space="preserve">
<g id="Ebene_1">
</g>
<g id="Ebene_2">
</g>
<g id="scd">
</g>
<g id="Ebene_4">
	<path fill-rule="evenodd" clip-rule="evenodd" fill="#D39B90" d="M215.438,145.321c18.738,1.831,36.746,5.368,49.705,20.951
		c8.638,10.39,13.484,22.341,14.728,35.736c2.467,26.535-8.936,48.65-22.692,69.9c-13.074,20.19-26.414,40.205-39.688,60.264
		c-0.403,0.611-1.357,0.857-2.053,1.272C215.438,270.737,215.438,208.029,215.438,145.321z"/>
	<path fill-rule="evenodd" clip-rule="evenodd" fill="#C5796B" d="M215.438,145.321c0,62.708,0,125.416,0,188.124
		c-0.58,0-1.162,0-1.742,0c-10.912-19.003-24.575-36.18-36.292-54.644c-10.567-16.649-21.383-33.334-25.188-53.107
		c-7.071-36.751,8.058-71.443,49.999-78.808C206.644,146.109,210.949,145.211,215.438,145.321z"/>
	<path fill-rule="evenodd" clip-rule="evenodd" fill="#95C0D6" d="M213.696,333.445c0.58,0,1.162,0,1.742,0
		c0.58,1.162,1.161,2.322,1.741,3.484c-3.618,3.63-0.913,8.165-1.741,12.192c-2.831,0-5.661,0-8.439,0
		C208.34,343.334,214.763,340.028,213.696,333.445z"/>
	<path fill-rule="evenodd" clip-rule="evenodd" fill="#70AAC7" d="M215.438,349.122c0.801-4.033-1.82-8.555,1.741-12.192
		c2.273,3.961,4.549,7.923,6.999,12.192C221.059,349.122,218.25,349.122,215.438,349.122z"/>
	<path fill-rule="evenodd" clip-rule="evenodd" fill="#D39B90" d="M157.805,206.697c0.785-13.957,5.517-26.174,15.743-36.104
		c3.093-3.002,6.035-4.178,9.559-0.976c3.167,2.881,5.127,6.107,2.109,10.235c-6.022,8.227-11.758,16.555-11.585,27.396
		c0.162,10.097,2.74,19.684,8.839,27.59c4.618,5.991,3.242,10.446-1.86,13.805c-5.154,3.392-9.398-0.776-11.661-4.729
		C162.402,232.48,157.477,220.367,157.805,206.697z"/>
	<polygon fill-rule="evenodd" clip-rule="evenodd" fill="#D39B90" points="214.865,332.899 219.513,341.383 224.159,349.864 
		214.865,349.864 205.567,349.864 210.214,341.383 	"/>
	<polygon fill-rule="evenodd" clip-rule="evenodd" fill="#C5796B" points="217.519,338.122 220.68,343.992 223.84,349.864 
		217.519,349.864 211.19,349.864 214.354,343.992 	"/>
</g>
<g id="Ebene_5">
</g>
<g id="Ebene_6">
</g>
<g id="Ebene_7">
</g>
</svg>
