<?xml version="1.0" encoding="utf-8"?>
<!-- Generator: Adobe Illustrator 16.0.0, SVG Export Plug-In . SVG Version: 6.00 Build 0)  -->
<!DOCTYPE svg PUBLIC "-//W3C//DTD SVG 1.1//EN" "http://www.w3.org/Graphics/SVG/1.1/DTD/svg11.dtd">
<svg version="1.1" xmlns="http://www.w3.org/2000/svg" xmlns:xlink="http://www.w3.org/1999/xlink" x="0px" y="0px"
	 width="387.038px" height="367.758px" viewBox="0 0 387.038 367.758" enable-background="new 0 0 387.038 367.758"
	 xml:space="preserve">
<g id="Ebene_1">
</g>
<g id="Ebene_2">
</g>
<g id="scd">
</g>
<g id="Ebene_4">
</g>
<g id="Ebene_5">
	<g>
		<path fill-rule="evenodd" clip-rule="evenodd" fill="#624642" d="M196.106,286.844c0,9.309-7.545,10.087-16.853,10.087l0,0
			c-9.307,0-16.852-0.778-16.852-10.087v-42.48c0-9.307,7.545-6.704,16.852-6.704l0,0c9.308,0,16.853-2.603,16.853,6.704V286.844z"
			/>
		<path fill-rule="evenodd" clip-rule="evenodd" fill="#4D956A" d="M168.6,238.981c-19.285-2.841-36.269-15.138-43.122-35.437
			c-9.011-26.654-3.534-50.565,6.431-75.933c11.593-29.499,24.675-58.492,39.456-86.639c0.379-0.732,1.424-1.14,2.163-1.704
			c0.628,0.835,1.258,1.669,1.878,2.501c20.088,30.214,41.343,60.267,53.985,94.07c12.659,33.88,14.669,77.444-23.452,96.835
			C193.886,238.793,180.783,240.781,168.6,238.981z"/>
		<path fill-rule="evenodd" clip-rule="evenodd" fill="#2E7F67" d="M156.828,238.933c-17.947-3.714-33.312-16.43-38.828-36.342
			c-7.247-26.152-1.039-48.925,9.439-72.867c12.191-27.85,25.756-55.137,40.869-81.517c0.394-0.688,1.387-1.027,2.108-1.533
			c0.551,0.839,1.102,1.673,1.649,2.508c17.47,30.142,36.048,60.181,46.376,93.411c10.348,33.298,10.271,75.393-26.33,92.148
			C180.543,240.034,168.169,241.279,156.828,238.933z"/>
		<path fill-rule="evenodd" clip-rule="evenodd" fill="#50393F" d="M186.461,286.844c0,9.309-7.544,10.087-16.851,10.087l0,0
			c-9.309,0-16.851-0.778-16.851-10.087v-42.48c0-9.307,7.542-6.704,16.851-6.704l0,0c9.307,0,16.851-2.603,16.851,6.704V286.844z"
			/>
	</g>
</g>
<g id="Ebene_6">
</g>
<g id="Ebene_7">
</g>
</svg>
