<?xml version="1.0" encoding="utf-8"?>
<!-- Generator: Adobe Illustrator 16.0.0, SVG Export Plug-In . SVG Version: 6.00 Build 0)  -->
<!DOCTYPE svg PUBLIC "-//W3C//DTD SVG 1.1//EN" "http://www.w3.org/Graphics/SVG/1.1/DTD/svg11.dtd">
<svg version="1.1" xmlns="http://www.w3.org/2000/svg" xmlns:xlink="http://www.w3.org/1999/xlink" x="0px" y="0px"
	 width="1244.85px" height="628.251px" viewBox="0 0 1244.85 628.251" enable-background="new 0 0 1244.85 628.251"
	 xml:space="preserve">
<g id="Ebene_1">
</g>
<g id="Ebene_2">
</g>
<g id="scd">
</g>
<g id="Ebene_4">
</g>
<g id="Ebene_5">
</g>
<g id="Ebene_6">
	<polygon fill-rule="evenodd" clip-rule="evenodd" fill="#7D7E7E" points="583.699,515.897 462.585,515.897 272.869,515.897 
		468.561,347.096 582.204,252.369 582.091,390.416 	"/>
	<polygon fill-rule="evenodd" clip-rule="evenodd" fill="#878888" points="580.708,515.897 701.822,515.897 891.539,515.897 
		695.847,347.096 580.708,251.123 580.708,385.917 	"/>
	<path fill-rule="evenodd" clip-rule="evenodd" fill="#F2F2F2" d="M580.708,318.396c-8.773-1.715-17.693-2.361-23.049-10.53
		c-3.951-6.022-8.274-1.952-11.583-0.578c-11.697,4.855-19.531,1.234-24.943-9.535c17.284-18.275,37.634-32.321,59.823-46.629
		c0,19.414,0.493,35.744-0.187,52.023c-0.402,9.688,2.88,11.369,12.613,10.354C589.893,317.238,584.808,317.112,580.708,318.396z"/>
	<path fill-rule="evenodd" clip-rule="evenodd" fill="#F2F2F2" d="M578.759,318.396c8.773-1.715,17.885-3.194,23.242-11.363
		c3.95-6.022,8.274-1.952,11.583-0.578c11.696,4.855,19.53,1.234,24.942-9.535c-17.284-18.275-35.382-31.488-57.57-45.796
		c0,19.414-2.746,34.911-2.066,51.19c0.403,9.688-1.636,14.116-11.37,13.101C571.01,319.152,574.66,317.112,578.759,318.396z"/>
	<polygon fill-rule="evenodd" clip-rule="evenodd" fill="#7D7E7E" points="924.426,512.276 846.381,512.276 724.129,512.276 
		850.232,403.501 923.463,342.459 923.391,431.416 	"/>
	<polygon fill-rule="evenodd" clip-rule="evenodd" fill="#878888" points="922.5,512.276 1000.545,512.276 1122.798,512.276 
		996.695,403.501 922.5,341.656 922.5,428.518 	"/>
	<path fill-rule="evenodd" clip-rule="evenodd" fill="#F2F2F2" d="M922.5,385.007c-5.654-1.105-11.402-1.522-14.854-6.786
		c-2.546-3.881-5.332-1.258-7.464-0.372c-7.538,3.128-12.585,0.795-16.073-6.145c11.138-11.777,24.252-20.828,38.55-30.048
		c0,12.511,0.317,23.033-0.12,33.523c-0.26,6.243,1.855,7.326,8.127,6.672C928.418,384.261,925.141,384.18,922.5,385.007z"/>
	<path fill-rule="evenodd" clip-rule="evenodd" fill="#F2F2F2" d="M921.245,385.007c5.652-1.105,11.524-2.059,14.977-7.323
		c2.545-3.881,5.332-1.258,7.464-0.372c7.537,3.129,12.585,0.795,16.073-6.145c-11.138-11.776-22.801-20.291-37.099-29.511
		c0,12.511-1.769,22.496-1.331,32.987c0.26,6.242-1.055,9.096-7.326,8.441C916.25,385.494,918.602,384.18,921.245,385.007z"/>
	<path fill-rule="evenodd" clip-rule="evenodd" fill="#B7D8CB" d="M1213.483,448.661c11.913-1.343,14.788,1.269,14.754,10.259
		c-0.174,43.3-0.274,86.606,0.069,129.907c0.076,9.675-4.257,13.867-15.722,12.937c-3.517-0.289-7.097-0.041-10.649-0.041
		c-385.843,0-771.688,0-1157.534,0c-23.571-0.003-23.575-0.012-23.578-20.198c-0.003-27.872,0.298-55.747-0.181-83.616
		c-0.146-8.371,2.511-11.388,13.085-13.535c20.422-4.152,42.641-0.954,61.584-10.661c129.195-19.239,258.011-19.16,386.356,5.304
		c73.937,10.793,147.931,21.162,222.45,28.94c78.781,8.219,155.531-3.005,232.303-14.827c32.553-5.013,65.074-10.273,97.319-16.657
		C1041.647,474.905,1160.756,454.596,1213.483,448.661z"/>
</g>
<g id="Ebene_7">
</g>
</svg>
