<?xml version="1.0" encoding="utf-8"?>
<!-- Generator: Adobe Illustrator 16.0.0, SVG Export Plug-In . SVG Version: 6.00 Build 0)  -->
<!DOCTYPE svg PUBLIC "-//W3C//DTD SVG 1.1//EN" "http://www.w3.org/Graphics/SVG/1.1/DTD/svg11.dtd">
<svg version="1.1" id="Ebene_1" xmlns="http://www.w3.org/2000/svg" xmlns:xlink="http://www.w3.org/1999/xlink" x="0px" y="0px"
	 width="1207.67px" height="350.767px" viewBox="20.637 251.123 1207.67 350.767"
	 enable-background="new 20.637 251.123 1207.67 350.767" xml:space="preserve">
<g id="Ebene_1_1_">
</g>
<g id="Ebene_2">
</g>
<g id="scd">
</g>
<g id="Ebene_4">
</g>
<g id="Ebene_5">
</g>
<g id="Ebene_6">
	<polygon fill="#7D7E7E" points="583.699,515.897 462.585,515.897 272.869,515.897 468.561,347.096 582.204,252.369 
		582.091,390.417 	"/>
	<polygon fill="#878888" points="580.708,515.897 701.822,515.897 891.539,515.897 695.847,347.096 580.708,251.123 
		580.708,385.917 	"/>
	<path fill="#F2F2F2" d="M580.708,318.397c-8.773-1.717-17.693-2.361-23.049-10.531c-3.951-6.022-8.274-1.952-11.583-0.578
		c-11.697,4.854-19.531,1.234-24.943-9.535c17.284-18.275,37.634-32.321,59.823-46.629c0,19.414,0.493,35.744-0.188,52.023
		c-0.401,9.688,2.881,11.368,12.613,10.354C589.893,317.239,584.808,317.112,580.708,318.397z"/>
	<path fill="#F2F2F2" d="M578.759,318.397c8.773-1.717,17.885-3.195,23.242-11.364c3.95-6.022,8.274-1.952,11.583-0.578
		c11.696,4.854,19.53,1.234,24.942-9.535c-17.284-18.275-35.383-31.488-57.57-45.796c0,19.414-2.746,34.911-2.066,51.19
		c0.403,9.688-1.636,14.116-11.37,13.1C571.01,319.153,574.66,317.112,578.759,318.397z"/>
	<polygon fill="#7D7E7E" points="924.426,512.276 846.381,512.276 724.129,512.276 850.232,403.5 923.463,342.459 923.391,431.417 	
		"/>
	<polygon fill="#878888" points="922.5,512.276 1000.545,512.276 1122.798,512.276 996.695,403.5 922.5,341.657 922.5,428.518 	"/>
	<path fill="#F2F2F2" d="M922.5,385.006c-5.654-1.104-11.402-1.521-14.854-6.785c-2.547-3.881-5.332-1.258-7.465-0.373
		c-7.538,3.129-12.585,0.795-16.072-6.145c11.138-11.777,24.252-20.828,38.55-30.047c0,12.51,0.316,23.033-0.12,33.521
		c-0.26,6.244,1.854,7.326,8.127,6.672C928.418,384.26,925.141,384.18,922.5,385.006z"/>
	<path fill="#F2F2F2" d="M921.245,385.006c5.651-1.104,11.523-2.059,14.977-7.322c2.545-3.881,5.332-1.258,7.464-0.373
		c7.537,3.131,12.586,0.797,16.073-6.145c-11.138-11.775-22.801-20.291-37.099-29.51c0,12.51-1.77,22.496-1.331,32.986
		c0.26,6.242-1.055,9.096-7.326,8.441C916.25,385.495,918.602,384.18,921.245,385.006z"/>
	<path fill="#B7D8CB" d="M1213.483,448.661c11.913-1.342,14.788,1.27,14.754,10.26c-0.174,43.299-0.274,86.605,0.068,129.906
		c0.076,9.676-4.257,13.867-15.722,12.938c-3.517-0.289-7.097-0.041-10.649-0.041c-385.843,0-771.688,0-1157.534,0
		c-23.571-0.004-23.575-0.012-23.578-20.197c-0.003-27.873,0.298-55.748-0.181-83.617c-0.146-8.371,2.511-11.387,13.085-13.535
		c20.422-4.152,42.641-0.953,61.584-10.66c129.195-19.24,258.011-19.16,386.356,5.303c73.937,10.793,147.931,21.162,222.45,28.941
		c78.78,8.219,155.53-3.006,232.303-14.828c32.553-5.012,65.074-10.271,97.319-16.656
		C1041.646,474.905,1160.756,454.596,1213.483,448.661z"/>
</g>
<g id="Ebene_7">
</g>
</svg>
