<?xml version="1.0" encoding="utf-8"?>
<!-- Generator: Adobe Illustrator 16.0.0, SVG Export Plug-In . SVG Version: 6.00 Build 0)  -->
<!DOCTYPE svg PUBLIC "-//W3C//DTD SVG 1.1//EN" "http://www.w3.org/Graphics/SVG/1.1/DTD/svg11.dtd">
<svg version="1.1" xmlns="http://www.w3.org/2000/svg" xmlns:xlink="http://www.w3.org/1999/xlink" x="0px" y="0px"
	 width="468.54px" height="269.996px" viewBox="0 0 468.54 269.996" enable-background="new 0 0 468.54 269.996"
	 xml:space="preserve">
<g id="Ebene_1">
</g>
<g id="Ebene_2">
</g>
<g id="scd">
</g>
<g id="Ebene_4">
	<path fill-rule="evenodd" clip-rule="evenodd" fill="#B2B2B2" d="M339.888,114.626c-7.551-0.774-14.464,3.378-22.076,4.476
		c-5.587,0.801-9.3-1.197-12.112-4.647c-13.166-16.153-30.594-21.548-50.4-19.709c-8.735,0.811-17.774,2.941-25.652,6.648
		c-4.545,2.14-7.402,1.398-10.55-0.42c-30.028-17.366-71.458-9.925-94.221,10.36c-15.009,13.379-19.733,28.695-14.679,48.15
		c2.18,8.387,3.539,16.463,9.508,23.392c7.223,8.383,16.643,11.397,26.756,11.767c9.332,0.342,18.682-0.938,28.095-2.343
		c13.432-2.011,27.61-2.149,41.416,0.519c22.854,4.427,45.871,4.187,68.584-0.29c10.346-2.038,19.933-7.431,27.159-15.575
		c2.894-3.263,5.072-4.445,9.228-2.467c12.576,5.988,25.59,6.088,38.946,2.596c9.722-2.541,21.463-15.832,23.063-26.979
		c1.592-11.12-6.089-26.967-15.385-31.856C358.897,113.688,349.779,112.491,339.888,114.626z"/>
</g>
<g id="Ebene_5">
</g>
<g id="Ebene_6">
</g>
<g id="Ebene_7">
</g>
</svg>
