<?xml version="1.0" encoding="utf-8"?>
<!-- Generator: Adobe Illustrator 16.0.0, SVG Export Plug-In . SVG Version: 6.00 Build 0)  -->
<!DOCTYPE svg PUBLIC "-//W3C//DTD SVG 1.1//EN" "http://www.w3.org/Graphics/SVG/1.1/DTD/svg11.dtd">
<svg version="1.1" id="Ebene_1" xmlns="http://www.w3.org/2000/svg" xmlns:xlink="http://www.w3.org/1999/xlink" x="0px" y="0px"
	 width="274.916px" height="104.751px" viewBox="108.248 91.265 274.916 104.751"
	 enable-background="new 108.248 91.265 274.916 104.751" xml:space="preserve">
<g id="Ebene_1_1_">
</g>
<g id="Ebene_2">
</g>
<g id="scd">
</g>
<g id="Ebene_4">
	<path fill="#B2B2B2" d="M339.888,114.626c-7.552-0.774-14.464,3.378-22.076,4.476c-5.587,0.801-9.3-1.197-12.112-4.647
		c-13.166-16.153-30.594-21.548-50.4-19.709c-8.734,0.811-17.773,2.941-25.651,6.648c-4.545,2.14-7.402,1.398-10.55-0.42
		c-30.028-17.366-71.458-9.925-94.221,10.36c-15.009,13.379-19.733,28.695-14.679,48.15c2.18,8.387,3.539,16.463,9.508,23.392
		c7.223,8.383,16.643,11.397,26.756,11.767c9.332,0.342,18.682-0.938,28.095-2.343c13.432-2.011,27.61-2.149,41.416,0.519
		c22.854,4.428,45.871,4.188,68.584-0.289c10.346-2.038,19.934-7.432,27.158-15.575c2.895-3.263,5.072-4.445,9.229-2.468
		c12.576,5.988,25.59,6.089,38.946,2.597c9.722-2.541,21.463-15.832,23.063-26.979c1.592-11.119-6.09-26.966-15.386-31.855
		C358.897,113.688,349.779,112.491,339.888,114.626z"/>
</g>
<g id="Ebene_5">
</g>
<g id="Ebene_6">
</g>
<g id="Ebene_7">
</g>
</svg>
