<?xml version="1.0" encoding="utf-8"?>
<!-- Generator: Adobe Illustrator 16.0.0, SVG Export Plug-In . SVG Version: 6.00 Build 0)  -->
<!DOCTYPE svg PUBLIC "-//W3C//DTD SVG 1.1//EN" "http://www.w3.org/Graphics/SVG/1.1/DTD/svg11.dtd">
<svg version="1.1" id="Ebene_1" xmlns="http://www.w3.org/2000/svg" xmlns:xlink="http://www.w3.org/1999/xlink" x="0px" y="0px"
	 width="28.647px" height="45.194px" viewBox="33.262 32.502 28.647 45.194" enable-background="new 33.262 32.502 28.647 45.194"
	 xml:space="preserve">
<g id="Ebene_1_1_">
</g>
<g id="Ebene_2">
</g>
<g id="scd">
</g>
<g id="Ebene_4">
	<path fill="#D39B90" d="M47.6,32.504c4.14,0.405,8.118,1.186,10.981,4.629c1.908,2.296,2.979,4.937,3.254,7.896
		c0.545,5.862-1.974,10.749-5.014,15.444c-2.889,4.461-5.836,8.883-8.769,13.314c-0.089,0.135-0.3,0.189-0.453,0.281
		C47.6,60.214,47.6,46.359,47.6,32.504z"/>
	<path fill="#C5796B" d="M47.6,32.504c0,13.855,0,27.71,0,41.564c-0.129,0-0.258,0-0.385,0c-2.412-4.198-5.43-7.994-8.019-12.073
		c-2.334-3.679-4.724-7.364-5.565-11.733c-1.563-8.12,1.78-15.785,11.047-17.412C45.656,32.678,46.607,32.48,47.6,32.504z"/>
	<path fill="#95C0D6" d="M47.215,74.068c0.127,0,0.256,0,0.385,0c0.127,0.257,0.256,0.514,0.385,0.77
		c-0.8,0.803-0.202,1.805-0.385,2.693c-0.626,0-1.252,0-1.865,0C46.031,76.254,47.45,75.523,47.215,74.068z"/>
	<path fill="#70AAC7" d="M47.6,77.532c0.176-0.892-0.402-1.89,0.385-2.694c0.502,0.876,1.004,1.751,1.546,2.694
		C48.841,77.532,48.221,77.532,47.6,77.532z"/>
	<path fill="#D39B90" d="M34.866,46.064c0.173-3.083,1.219-5.783,3.478-7.977c0.684-0.664,1.333-0.923,2.112-0.216
		c0.7,0.637,1.133,1.349,0.466,2.261c-1.331,1.818-2.598,3.658-2.56,6.053c0.036,2.23,0.605,4.349,1.953,6.096
		c1.021,1.323,0.716,2.308-0.411,3.05c-1.139,0.75-2.077-0.172-2.577-1.045C35.881,51.762,34.793,49.085,34.866,46.064z"/>
	<polygon fill="#D39B90" points="47.473,73.947 48.5,75.822 49.525,77.696 47.473,77.696 45.418,77.696 46.445,75.822 	"/>
	<polygon fill="#C5796B" points="48.059,75.102 48.758,76.398 49.455,77.696 48.059,77.696 46.66,77.696 47.359,76.398 	"/>
</g>
<g id="Ebene_5">
</g>
<g id="Ebene_6">
</g>
<g id="Ebene_7">
</g>
</svg>
