<?xml version="1.0" encoding="utf-8"?>
<!-- Generator: Adobe Illustrator 16.0.0, SVG Export Plug-In . SVG Version: 6.00 Build 0)  -->
<!DOCTYPE svg PUBLIC "-//W3C//DTD SVG 1.1//EN" "http://www.w3.org/Graphics/SVG/1.1/DTD/svg11.dtd">
<svg version="1.1" id="Ebene_1" xmlns="http://www.w3.org/2000/svg" xmlns:xlink="http://www.w3.org/1999/xlink" x="0px" y="0px"
	 width="178.428px" height="74.247px" viewBox="112.392 53.462 178.428 74.247"
	 enable-background="new 112.392 53.462 178.428 74.247" xml:space="preserve">
<g id="Ebene_1_1_">
</g>
<g id="Ebene_2">
</g>
<g id="scd">
</g>
<g id="Ebene_4">
	<path fill="#C6C6C6" d="M138.114,81.009c4.837-1.073,9.633,1.097,14.649,1.231c3.686,0.099,5.94-1.479,7.502-3.929
		c7.314-11.467,18.207-16.28,31.187-16.584c5.726-0.136,11.745,0.563,17.133,2.37c3.108,1.044,4.906,0.347,6.81-1.07
		c18.153-13.525,45.577-11.833,61.866-0.4c10.742,7.537,14.963,17.111,13.156,30.106c-0.781,5.603-1.051,10.939-4.397,15.884
		c-4.048,5.979-9.929,8.647-16.456,9.65c-6.024,0.926-12.184,0.803-18.393,0.604c-8.858-0.289-18.063,0.691-26.812,3.467
		c-14.481,4.596-29.423,6.178-44.485,4.992c-6.861-0.539-13.484-3.312-18.784-8.044c-2.123-1.897-3.625-2.499-6.17-0.902
		c-7.7,4.831-16.13,5.881-25.052,4.626c-6.494-0.912-15.11-8.644-16.99-15.75c-1.875-7.087,1.908-17.941,7.565-21.813
		C125.719,81.837,131.539,80.372,138.114,81.009z"/>
</g>
<g id="Ebene_5">
</g>
<g id="Ebene_6">
</g>
<g id="Ebene_7">
</g>
</svg>
