<?xml version="1.0" encoding="utf-8"?>
<!-- Generator: Adobe Illustrator 16.0.0, SVG Export Plug-In . SVG Version: 6.00 Build 0)  -->
<!DOCTYPE svg PUBLIC "-//W3C//DTD SVG 1.1//EN" "http://www.w3.org/Graphics/SVG/1.1/DTD/svg11.dtd">
<svg version="1.1" xmlns="http://www.w3.org/2000/svg" xmlns:xlink="http://www.w3.org/1999/xlink" x="0px" y="0px" width="326px"
	 height="440px" viewBox="0 0 326 440" enable-background="new 0 0 326 440" xml:space="preserve">
<g id="Ebene_1">
</g>
<g id="Ebene_2">
</g>
<g id="scd">
	<path fill-rule="evenodd" clip-rule="evenodd" fill="#FCD669" d="M163.062,141.732c18.738,1.832,36.746,5.368,49.705,20.951
		c8.638,10.39,13.484,22.342,14.728,35.737c2.467,26.535-8.936,48.65-22.692,69.9c-13.074,20.189-26.414,40.205-39.688,60.264
		c-0.403,0.61-1.357,0.857-2.053,1.272C163.062,267.149,163.062,204.441,163.062,141.732z"/>
	<path fill-rule="evenodd" clip-rule="evenodd" fill="#F9C938" d="M163.062,141.732c0,62.709,0,125.417,0,188.125
		c-0.58,0-1.162,0-1.742,0c-10.912-19.003-24.575-36.18-36.292-54.644c-10.567-16.65-21.382-33.334-25.188-53.107
		c-7.071-36.751,8.058-71.444,50-78.809C154.267,142.521,158.572,141.623,163.062,141.732z"/>
	<path fill-rule="evenodd" clip-rule="evenodd" fill="#95C0D6" d="M161.319,329.857c0.58,0,1.162,0,1.742,0
		c0.58,1.162,1.161,2.322,1.741,3.483c-3.618,3.631-0.913,8.165-1.741,12.193c-2.831,0-5.661,0-8.439,0
		C155.963,339.746,162.386,336.44,161.319,329.857z"/>
	<path fill-rule="evenodd" clip-rule="evenodd" fill="#70AAC7" d="M163.062,345.534c0.801-4.033-1.82-8.555,1.741-12.193
		c2.272,3.962,4.549,7.924,6.998,12.193C168.682,345.534,165.873,345.534,163.062,345.534z"/>
	<path fill-rule="evenodd" clip-rule="evenodd" fill="#FCD669" d="M105.427,203.109c0.786-13.957,5.517-26.174,15.743-36.104
		c3.093-3.003,6.036-4.178,9.559-0.976c3.167,2.881,5.127,6.107,2.109,10.235c-6.022,8.227-11.758,16.555-11.584,27.396
		c0.162,10.096,2.741,19.684,8.839,27.59c4.618,5.991,3.242,10.446-1.861,13.804c-5.154,3.393-9.398-0.775-11.661-4.729
		C110.025,228.893,105.099,216.779,105.427,203.109z"/>
	<polygon fill-rule="evenodd" clip-rule="evenodd" fill="#FCD669" points="162.488,329.312 167.135,337.795 171.782,346.276 
		162.488,346.276 153.189,346.276 157.837,337.795 	"/>
	<polygon fill-rule="evenodd" clip-rule="evenodd" fill="#F9C938" points="165.142,334.533 168.302,340.404 171.463,346.276 
		165.142,346.276 158.813,346.276 161.978,340.404 	"/>
</g>
<g id="Ebene_4">
</g>
<g id="Ebene_5">
</g>
<g id="Ebene_6">
</g>
<g id="Ebene_7">
</g>
</svg>
