<?xml version="1.0" encoding="utf-8"?>
<!-- Generator: Adobe Illustrator 16.0.0, SVG Export Plug-In . SVG Version: 6.00 Build 0)  -->
<!DOCTYPE svg PUBLIC "-//W3C//DTD SVG 1.1//EN" "http://www.w3.org/Graphics/SVG/1.1/DTD/svg11.dtd">
<svg version="1.1" xmlns="http://www.w3.org/2000/svg" xmlns:xlink="http://www.w3.org/1999/xlink" x="0px" y="0px"
	 width="386.014px" height="171.145px" viewBox="0 0 386.014 171.145" enable-background="new 0 0 386.014 171.145"
	 xml:space="preserve">
<g id="Ebene_1">
</g>
<g id="Ebene_2">
</g>
<g id="scd">
</g>
<g id="Ebene_4">
	<path fill-rule="evenodd" clip-rule="evenodd" fill="#C6C6C6" d="M138.114,81.009c4.836-1.073,9.632,1.097,14.649,1.231
		c3.685,0.099,5.94-1.479,7.502-3.928c7.314-11.467,18.207-16.281,31.186-16.584c5.726-0.136,11.746,0.562,17.133,2.37
		c3.109,1.044,4.906,0.347,6.81-1.07c18.153-13.526,45.577-11.833,61.866-0.401c10.742,7.537,14.963,17.111,13.156,30.107
		c-0.781,5.602-1.051,10.939-4.397,15.883c-4.048,5.98-9.929,8.648-16.456,9.651c-6.025,0.926-12.184,0.803-18.393,0.604
		c-8.858-0.289-18.062,0.692-26.811,3.467c-14.482,4.596-29.423,6.178-44.486,4.992c-6.861-0.539-13.484-3.311-18.784-8.044
		c-2.123-1.897-3.625-2.499-6.17-0.902c-7.7,4.831-16.13,5.881-25.052,4.626c-6.494-0.912-15.11-8.644-16.99-15.75
		c-1.875-7.087,1.908-17.941,7.566-21.813C125.719,81.837,131.539,80.372,138.114,81.009z"/>
</g>
<g id="Ebene_5">
</g>
<g id="Ebene_6">
</g>
<g id="Ebene_7">
</g>
</svg>
